<svg width="173" height="305" viewBox="0 0 173 305" fill="none" xmlns="http://www.w3.org/2000/svg">
<path d="M86.5 0L48.5895 24.0368L69.4136 106.296L53.3951 63.0298C24.014 76.9559 12.5472 97.8832 11.213 133.538L24.8287 140.749L38.4444 147.96L0 136.743C4.92055 162.266 5.55212 178.706 0 214.729L9.07716 200.306C8 221 6 232.5 2.27 246.87C12.213 274.5 29.5 290 61.4043 305L73.6852 285.771L75.821 207.25L35.2407 211.524C34.1728 191.76 29.9012 166.121 27.7654 158.643C73.6852 161.848 99.3148 160.779 144.167 158.643C142.031 166.121 137.759 191.76 137.759 211.524L97.179 207.25L99.3148 285.771L111.596 305C143.5 290 159.79 273.5 170.73 246.87C167 232.5 165 221 163.923 200.306L173 214.729C167.447 178.706 168.077 162.266 173 136.743L134.556 147.96L148.171 140.749L161.787 133.538C160.452 97.8832 148.983 76.9559 119.605 63.0298L103.586 106.296L124.41 24.0368L86.5 0Z" fill="black"/>
<path d="M56 163H46.6061L46 159L55.697 159.4L56 163Z" fill="black"/>
<path d="M112.36 206L120.728 206.455L120.265 211L111.728 210.636L112.36 206Z" fill="black"/>
<path d="M60.368 205L52 205.455L52.4629 210L61 209.636L60.368 205Z" fill="black"/>
<path d="M120 163H129.394L130 159L120.303 159.4L120 163Z" fill="black"/>
</svg>
